<svg width="368" height="87" viewBox="0 0 368 87" fill="none" xmlns="http://www.w3.org/2000/svg">
<path d="M34.3834 0.568332C20.5018 3.72998 9.28778 12.9679 3.5079 26.0097C0.988461 31.7402 0.0498471 36.4333 0.000446338 43.3C-0.0489544 55.1561 4.00191 64.9869 12.4 73.385C21.2922 82.2771 32.8519 86.7726 45.1033 86.1304C70.0507 84.7966 88.7736 62.6651 85.6119 38.3105C83.3395 20.625 72.3231 7.28683 55.4775 1.70455C51.3278 0.321328 50.0434 0.123723 44.1153 0.0249213C39.6692 -0.0738802 36.4582 0.123726 34.3834 0.568332ZM47.3264 3.77938C52.464 4.37219 55.4281 5.212 60.0223 7.53384C69.9025 12.4245 76.5716 20.1804 80.2766 31.098C83.0925 39.5455 82.7467 50.2655 79.338 58.0214C78.3994 60.195 78.0042 60.5902 77.3126 60.2938C76.868 60.0962 75.4354 59.8492 74.151 59.701C71.3351 59.454 67.4325 61.0842 64.5178 63.7025L62.5912 65.4315L60.9116 63.9495C57.8487 61.2324 53.4026 58.6142 50.1422 57.6262C42.5839 55.3043 35.0256 57.231 27.5661 63.4061L24.2562 66.1231L22.1814 64.1471C18.9703 61.0348 16.3027 59.8986 12.4988 59.948C10.7204 59.948 8.84318 60.0962 8.34917 60.195C7.60816 60.2938 7.16355 59.7504 6.32374 57.5768C4.39711 52.6861 3.9031 49.6727 3.8537 43.3C3.8537 35.9393 4.69352 32.333 7.90456 25.7133C14.2279 12.6221 26.9732 4.22398 41.8923 3.33477C42.4357 3.33477 44.9057 3.53237 47.3264 3.77938Z" fill="black"/>
<path d="M41.6967 23.2297C41.3119 23.9995 41.3119 25.2503 41.6005 26.02C41.8892 26.7898 41.5043 27.9444 40.7346 28.6179C39.9648 29.1952 38.6178 31.2158 37.848 32.9477C36.4048 36.0267 36.4048 36.4116 38.4253 40.7414C40.1573 44.4939 40.4459 46.5145 40.1573 51.8065C39.7724 56.906 39.9648 58.3493 40.927 58.3493C41.6967 58.3493 42.2741 57.2909 42.3703 55.6552C42.3703 54.2119 42.9476 51.3254 43.6211 49.2086L44.7757 45.3599L46.6039 51.3254C47.6623 54.693 48.8169 57.3871 49.298 57.3871C50.1639 57.3871 50.0677 48.1502 49.1055 44.8788C48.5282 43.1468 48.9131 41.7036 50.2601 39.7792C52.4732 36.604 51.9921 33.7175 48.5282 30.0612C47.1812 28.5217 46.219 26.886 46.4114 26.2125C47.566 23.1335 42.8514 20.1508 41.6967 23.2297Z" fill="black"/>
<path d="M159.51 41.2009V58.575L162.695 58.2855C165.688 57.9959 165.784 57.8029 166.267 53.2663C166.556 50.6602 167.232 48.3436 167.811 48.1506C168.39 47.9575 170.417 50.1775 172.444 53.1698C175.726 57.8029 176.595 58.4785 179.394 58.4785C181.228 58.4785 182.676 58.189 182.676 57.8994C182.676 57.5133 180.456 54.2315 177.753 50.5636L172.734 43.9035L177.946 38.5948L183.062 33.3825H179.201C175.919 33.3825 174.375 34.0582 170.707 37.34L166.267 41.2974V32.5138V23.7302H162.889H159.51V41.2009Z" fill="black"/>
<path d="M328.426 26.6259C328.426 29.3286 328.715 29.5216 331.804 29.5216C334.893 29.5216 335.182 29.3286 335.182 26.6259C335.182 23.9233 334.893 23.7302 331.804 23.7302C328.715 23.7302 328.426 23.9233 328.426 26.6259Z" fill="black"/>
<path d="M100.342 25.3711C99.9556 25.6607 99.666 27.012 99.666 28.1703C99.666 30.1973 100.149 30.3903 104.782 30.6799L109.801 30.9695L110.091 44.7723L110.38 58.575L113.276 58.2855L116.171 57.9959L116.461 45.9305C116.751 39.2704 116.944 33.093 116.944 32.1277C117.04 30.7764 117.909 30.4868 121.866 30.4868C126.596 30.4868 126.692 30.3903 126.692 27.5912V24.6955H113.855C106.712 24.6955 100.631 24.985 100.342 25.3711Z" fill="black"/>
<path d="M275.338 27.5912C275.338 30.3903 275.434 30.4868 280.164 30.4868H284.894L285.183 44.1931L285.473 57.9959L288.658 58.2855L291.747 58.575V44.5792V30.4868H297.152C302.364 30.4868 302.461 30.4868 302.171 27.7842L301.882 25.1781L288.658 24.8885L275.338 24.5989V27.5912Z" fill="black"/>
<path d="M131.808 34.0582C131.132 34.2512 130.553 35.506 130.553 36.8574C130.553 39.0774 130.746 39.1739 136.152 38.5948C140.688 38.1122 142.04 38.3052 143.391 39.6565C145.9 42.1661 144.549 43.0348 138.179 43.0348C133.352 43.0348 132.001 43.4209 130.071 45.4479C124.858 50.5636 128.623 58.4785 136.248 58.4785C138.372 58.4785 141.171 58.0924 142.522 57.5133C144.066 56.9341 145.128 56.9341 145.514 57.5133C145.9 58.0924 147.155 58.4785 148.507 58.4785C150.823 58.4785 150.823 58.4785 150.823 48.3436C150.823 38.7878 150.63 38.0156 148.41 35.7956C146.383 33.6721 145.225 33.3825 139.53 33.4791C135.959 33.4791 132.387 33.7686 131.808 34.0582ZM144.839 49.5019C144.066 53.5558 134.414 54.8106 134.414 50.8532C134.414 48.2471 135.283 47.861 140.399 47.861C144.453 47.861 145.128 48.1506 144.839 49.5019Z" fill="black"/>
<path d="M189.336 36.0852C186.73 38.4017 186.151 39.6565 185.764 44.1931C184.992 53.7489 189.625 58.4785 199.567 58.4785C205.262 58.4785 207.772 57.1272 207.772 54.0385C207.772 52.2045 207.386 51.7219 206.131 52.108C199.374 54.0385 193.583 53.1697 192.521 49.9845C192.231 49.1158 194.258 48.8262 200.436 48.8262H208.737V43.9035C208.737 39.753 208.254 38.5948 205.938 36.1817C203.428 33.7686 202.366 33.3825 197.733 33.3825C193.197 33.3825 191.845 33.7686 189.336 36.0852ZM201.498 39.56C204.683 41.8766 202.656 44.0001 197.154 44.0001C193.004 44.0001 192.328 43.7105 192.328 42.0696C192.328 38.5948 198.023 36.9539 201.498 39.56Z" fill="black"/>
<path d="M234.123 34.0582C233.447 34.2512 232.868 35.6026 232.868 36.8574C232.868 39.2704 232.964 39.2704 238.659 38.5948C244.644 37.9191 247.346 38.8843 247.346 41.6835C247.346 42.6487 245.802 43.0348 241.265 43.0348C236.149 43.0348 234.798 43.4209 233.061 45.2549C229.972 48.5366 230.165 53.8454 233.447 56.4515C236.149 58.575 242.81 59.1542 245.416 57.5133C246.284 57.0307 247.25 57.0307 248.022 57.6098C248.601 58.1889 250.145 58.4785 251.4 58.2855C253.524 57.9959 253.62 57.7063 253.62 48.054C253.62 38.3052 253.524 38.0156 250.918 35.6991C248.601 33.7686 247.25 33.3825 241.748 33.4791C238.176 33.4791 234.702 33.7686 234.123 34.0582ZM247.153 49.9845C246.574 53.9419 236.729 54.9072 236.729 50.8532C236.729 48.2471 237.597 47.861 242.713 47.861C247.057 47.861 247.443 48.054 247.153 49.9845Z" fill="black"/>
<path d="M304.488 45.641L304.777 57.9959L307.866 58.2855L310.955 58.575L311.244 49.6949L311.534 40.8148L315.684 39.367C318.966 38.3052 319.738 37.6295 319.738 35.6991C319.738 33.093 317.229 32.6103 313.657 34.4443C312.113 35.313 311.534 35.313 311.244 34.4443C311.051 33.8651 309.41 33.3825 307.577 33.3825H304.198L304.488 45.641Z" fill="black"/>
<path d="M343.869 51.4324V69.1926L347.054 68.903C350.047 68.6135 350.143 68.5169 350.433 63.3047L350.722 57.9959L355.935 58.2855C360.954 58.6716 361.436 58.4785 364.622 55.2933C367.807 52.108 368 51.5289 368 45.4479C368 39.6566 367.71 38.7878 365.201 36.2782C362.498 33.5756 362.112 33.4791 353.135 33.5756L343.869 33.6721V51.4324ZM359.216 39.1739C361.436 40.3322 362.595 45.834 361.243 49.2123C360.085 52.3976 355.935 54.135 352.846 52.7837C350.915 51.915 350.626 51.0463 350.626 46.0271C350.626 41.4905 351.012 40.0426 352.363 39.2705C354.487 38.0157 356.996 37.9191 359.216 39.1739Z" fill="black"/>
<path d="M325.24 35.8921C324.951 37.8226 325.24 38.5948 326.591 38.8843C328.136 39.367 328.425 40.6218 328.618 48.7297L328.908 57.9959L332.093 58.2855L335.182 58.575V46.027V33.3825H330.452C326.109 33.3825 325.723 33.5756 325.24 35.8921Z" fill="black"/>
</svg>
